<?xml version="1.0" encoding="UTF-8" standalone="no"?>
<!-- Generator: Adobe Illustrator 19.0.0, SVG Export Plug-In . SVG Version: 6.00 Build 0)  -->

<svg
   xmlns:dc="http://purl.org/dc/elements/1.1/"
   xmlns:cc="http://creativecommons.org/ns#"
   xmlns:rdf="http://www.w3.org/1999/02/22-rdf-syntax-ns#"
   xmlns:svg="http://www.w3.org/2000/svg"
   xmlns="http://www.w3.org/2000/svg"
   xmlns:sodipodi="http://sodipodi.sourceforge.net/DTD/sodipodi-0.dtd"
   xmlns:inkscape="http://www.inkscape.org/namespaces/inkscape"
   version="1.1"
   id="Capa_1"
   x="0px"
   y="0px"
   viewBox="-10 -10 550 550"
   xml:space="preserve"
   sodipodi:docname="cpu.svg"
   width="504.98599"
   height="504.98599"
   inkscape:version="0.92.4 (5da689c313, 2019-01-14)"><metadata
   id="metadata49"><rdf:RDF><cc:Work
       rdf:about=""><dc:format>image/svg+xml</dc:format><dc:type
         rdf:resource="http://purl.org/dc/dcmitype/StillImage" /><dc:title></dc:title></cc:Work></rdf:RDF></metadata><defs
   id="defs47" /><sodipodi:namedview
   pagecolor="#ffffff"
   bordercolor="#666666"
   borderopacity="1"
   objecttolerance="10"
   gridtolerance="10"
   guidetolerance="10"
   inkscape:pageopacity="0"
   inkscape:pageshadow="2"
   inkscape:window-width="1920"
   inkscape:window-height="1017"
   id="namedview45"
   showgrid="false"
   inkscape:zoom="1.3218363"
   inkscape:cx="159.81362"
   inkscape:cy="277.19018"
   inkscape:window-x="-8"
   inkscape:window-y="-8"
   inkscape:window-maximized="1"
   inkscape:current-layer="Capa_1"
   scale-x="1.00993"
   viewbox-x="-10" />
<g
   id="g6">
	<g
   id="g4">
		<path
   d="M 361.206,129.753 H 143.781 c -7.715,0 -14.027,6.312 -14.027,14.027 v 217.425 c 0,7.715 6.312,14.027 14.027,14.027 h 217.425 c 7.715,0 14.027,-6.312 14.027,-14.027 V 143.781 c 0,-7.715 -6.312,-14.028 -14.027,-14.028 z m -14.028,217.425 h -189.37 v -52.603 h 28.055 c 7.715,0 14.027,-6.312 14.027,-14.027 0,-7.715 -6.312,-14.027 -14.027,-14.027 h -28.055 v -28.055 h 56.11 c 7.715,0 14.027,-6.312 14.027,-14.027 0,-7.715 -6.312,-14.027 -14.027,-14.027 h -56.11 v -52.603 h 189.37 z"
   id="path2"
   inkscape:connector-curvature="0" />
	</g>
</g>
<g
   id="g12">
	<g
   id="g10">
		<path
   d="m 504.986,216.022 c 0,-7.715 -6.312,-14.027 -14.027,-14.027 h -44.888 v -44.186 h 44.888 c 7.715,0 14.027,-6.312 14.027,-14.027 0,-7.715 -6.312,-14.027 -14.027,-14.027 h -44.888 v -30.16 c 0,-22.444 -18.236,-40.679 -40.679,-40.679 H 375.233 V 14.027 C 375.233,6.312 368.921,0 361.206,0 353.491,0 347.179,6.312 347.179,14.027 V 58.915 H 302.29 V 14.027 C 302.29,6.312 295.978,0 288.263,0 280.548,0 274.236,6.312 274.236,14.027 V 58.915 H 229.348 V 14.027 C 229.348,6.312 223.036,0 215.321,0 207.606,0 201.294,6.312 201.294,14.027 V 58.915 H 157.809 V 14.027 C 157.808,6.312 151.496,0 143.781,0 136.066,0 129.754,6.312 129.754,14.027 V 58.915 H 99.595 c -22.444,0 -40.679,18.236 -40.679,40.679 v 30.159 H 14.027 C 6.312,129.753 0,136.066 0,143.781 c 0,7.715 6.312,14.027 14.027,14.027 h 44.888 v 44.888 H 14.027 C 6.312,202.696 0,209.008 0,216.723 c 0,7.715 6.312,14.027 14.027,14.027 h 44.888 v 44.888 H 14.027 C 6.312,275.638 0,281.951 0,289.666 c 0,7.715 6.312,14.027 14.027,14.027 h 44.888 v 43.485 H 14.027 C 6.312,347.178 0,353.49 0,361.206 c 0,7.715 6.312,14.027 14.027,14.027 h 44.888 v 30.159 c 0,22.444 18.236,40.679 40.679,40.679 h 30.159 v 44.888 c 0,7.715 6.312,14.027 14.027,14.027 7.715,0 14.027,-6.312 14.027,-14.027 v -44.888 h 44.888 v 44.888 c 0,7.715 6.312,14.027 14.027,14.027 7.715,0 14.027,-6.312 14.027,-14.027 v -44.888 h 44.888 v 44.888 c 0,7.715 6.312,14.027 14.027,14.027 7.715,0 14.027,-6.312 14.027,-14.027 v -44.888 h 43.485 v 44.888 c 0,7.715 6.312,14.027 14.027,14.027 7.715,0 14.027,-6.312 14.027,-14.027 v -44.888 h 30.159 c 22.444,0 40.679,-18.236 40.679,-40.679 v -30.159 h 44.888 c 7.715,0 14.027,-6.312 14.027,-14.027 0,-7.715 -6.312,-14.027 -14.027,-14.027 H 446.068 V 302.29 h 44.888 c 7.715,0 14.027,-6.312 14.027,-14.027 0,-7.715 -6.312,-14.027 -14.027,-14.027 h -44.888 v -44.888 h 44.888 v 0.701 c 7.718,0 14.03,-6.312 14.03,-14.027 z m -86.268,189.37 h -0.701 c 0,7.014 -5.611,12.625 -12.625,12.625 H 99.595 c -7.014,0 -12.625,-5.611 -12.625,-12.625 V 99.595 c 0,-7.014 5.611,-12.625 12.625,-12.625 h 306.499 c 7.014,0 12.625,5.611 12.625,12.625 v 305.797 z"
   id="path8"
   inkscape:connector-curvature="0" />
	</g>
</g>
<g
   id="g14">
</g>
<g
   id="g16">
</g>
<g
   id="g18">
</g>
<g
   id="g20">
</g>
<g
   id="g22">
</g>
<g
   id="g24">
</g>
<g
   id="g26">
</g>
<g
   id="g28">
</g>
<g
   id="g30">
</g>
<g
   id="g32">
</g>
<g
   id="g34">
</g>
<g
   id="g36">
</g>
<g
   id="g38">
</g>
<g
   id="g40">
</g>
<g
   id="g42">
</g>
</svg>